<svg width="266" height="51" viewBox="0 0 266 51" fill="none" xmlns="http://www.w3.org/2000/svg">
<g opacity="0.7">
<g filter="url(#filter0_d_2_1471)">
<rect x="6" y="6" width="38.6454" height="38.6454" rx="4.83068" stroke="url(#paint0_linear_2_1471)" stroke-width="1.93227" shape-rendering="crispEdges"/>
</g>
<g filter="url(#filter1_d_2_1471)">
<path d="M25.3351 15.6611C22.6343 15.6611 21.0872 16.6588 20.2481 17.4989C19.2779 18.4965 18.7534 19.783 18.7534 21.1482C18.7796 24.7449 22.3983 25.8213 24.8107 26.6877C27.4853 27.6591 28.7178 28.3679 28.7178 29.4706C28.7178 30.3895 28.1671 31.0458 27.4329 31.3871C26.4889 31.8334 25.5187 31.5184 24.6271 31.4659C23.7618 31.4133 23.0276 32.0172 23.0276 33.1198C23.0276 34.4588 24.8631 34.9838 26.2267 34.9838C30.396 34.9838 32.2053 32.2797 32.2053 29.6806C32.2053 26.4514 29.2422 25.0337 25.8858 23.7473C23.1587 22.6971 22.2409 21.9883 22.2409 21.1482C22.2409 19.8617 23.4734 18.9428 25.2302 18.9428C27.2493 18.9428 28.3507 20.0455 28.8227 20.4656C29.4782 21.0431 30.4222 21.1219 31.0515 20.3343C31.5235 19.7305 31.6022 18.8903 31.1302 18.2602C30.4484 17.2889 28.4031 15.6611 25.3351 15.6611Z" fill="white"/>
<path d="M20.1696 29.0768C19.2256 29.0768 18.439 29.8381 18.439 30.8095C18.439 31.7809 19.2256 32.5423 20.1696 32.5423C21.1398 32.5423 21.9265 31.7809 21.9265 30.8095C21.9265 29.8381 21.166 29.0768 20.1696 29.0768Z" fill="white"/>
</g>
<mask id="mask0_2_1471" style="mask-type:alpha" maskUnits="userSpaceOnUse" x="59" y="17" width="207" height="20">
<path d="M65.4539 17.2979C62.9947 17.2979 61.5894 18.1762 60.8282 18.9959C59.9499 19.9328 59.4814 21.1038 59.4814 22.3335C59.4814 25.6125 62.819 26.6079 64.9855 27.3691C67.4447 28.2474 68.5573 28.8915 68.5573 29.8869C68.5573 30.7066 68.0303 31.3507 67.3862 31.6435C66.5079 32.0534 65.6296 31.7606 64.8098 31.7021C64.0486 31.6435 63.346 32.229 63.346 33.2245C63.346 34.4541 65.044 34.9225 66.2737 34.9225C70.0797 34.9225 71.7192 32.4633 71.7192 30.0626C71.7192 27.1349 69.0257 25.8467 65.9809 24.6756C63.4631 23.7388 62.6433 23.0947 62.6433 22.3335C62.6433 21.1624 63.7559 20.3426 65.3954 20.3426C67.2105 20.3426 68.2645 21.3381 68.6744 21.7479C69.2599 22.2749 70.1382 22.3335 70.7238 21.6308C71.1336 21.1038 71.2507 20.2841 70.7823 19.7571C70.1382 18.7617 68.2645 17.2979 65.4539 17.2979Z" fill="#208A88"/>
<path d="M259.735 17.2979C257.275 17.2979 255.87 18.1762 255.109 18.9959C254.231 19.9328 253.762 21.1038 253.762 22.3335C253.762 25.6125 257.1 26.6079 259.266 27.3691C261.726 28.2474 262.838 28.8915 262.838 29.8869C262.838 30.7066 262.311 31.3507 261.667 31.6435C260.789 32.0534 259.91 31.7606 259.091 31.7021C258.329 31.6435 257.627 32.229 257.627 33.2245C257.627 34.4541 259.325 34.9225 260.554 34.9225C264.36 34.9225 266 32.4633 266 30.0626C266 27.1349 263.306 25.8467 260.262 24.6756C257.802 23.7388 256.924 23.0947 256.924 22.3335C256.924 21.1624 258.037 20.3426 259.676 20.3426C261.491 20.3426 262.545 21.3381 262.955 21.7479C263.541 22.2749 264.419 22.3335 265.005 21.6308C265.414 21.1038 265.532 20.2841 265.063 19.7571C264.36 18.7617 262.487 17.2979 259.735 17.2979Z" fill="#208A88"/>
<path d="M100.293 17.7078C99.415 17.7078 98.7124 18.4104 98.7124 19.2887V27.4277C98.7124 31.8778 101.64 34.9226 106.032 34.9226C111.067 34.9226 113.351 31.058 113.351 27.4277V24.0316C113.351 23.1533 112.648 22.4506 111.77 22.4506C110.892 22.4506 110.189 23.1533 110.189 24.0316V27.3691C110.189 29.4771 109.135 31.7021 106.09 31.7021C102.343 31.7021 101.991 28.7159 101.991 27.3691V19.2302C101.874 18.4104 101.172 17.7078 100.293 17.7078Z" fill="#208A88"/>
<path d="M111.711 17.7078C110.833 17.7078 110.13 18.4104 110.13 19.2887C110.13 20.167 110.833 20.8697 111.711 20.8697C112.59 20.8697 113.292 20.167 113.292 19.2887C113.292 18.4104 112.59 17.7078 111.711 17.7078Z" fill="#208A88"/>
<path d="M139.524 17.7078C138.646 17.7078 137.943 18.4104 137.943 19.2887V32.8732C137.943 33.7515 138.646 34.4541 139.524 34.4541C140.403 34.4541 141.105 33.7515 141.105 32.8732V20.7526H143.857C147.429 20.7526 149.303 22.5677 149.303 26.0809C149.303 27.4862 148.893 28.7159 148.19 29.5942C148.015 29.7698 147.78 30.004 147.663 30.2383C147.019 30.8823 147.019 31.8192 147.488 32.4047C148.073 33.0488 149.069 33.1659 149.713 32.5804C151.469 31.058 152.465 28.6573 152.465 26.1395C152.465 20.9282 149.186 17.7663 143.857 17.7663L139.524 17.7078Z" fill="#208A88"/>
<path d="M203.816 17.7078C202.938 17.7078 202.235 18.4104 202.235 19.2887V32.8732C202.235 33.7515 202.938 34.4541 203.816 34.4541C204.695 34.4541 205.397 33.7515 205.397 32.8732V28.0718L210.96 33.9857C211.604 34.6298 212.599 34.6298 213.185 34.0443C213.829 33.4002 213.829 32.4047 213.243 31.8192L207.33 25.7296L209.437 23.7974C210.082 23.1533 210.082 22.1578 209.437 21.5723C208.793 20.9282 207.798 20.9868 207.212 21.5723L205.397 23.5046V19.2887C205.397 18.4104 204.695 17.7078 203.816 17.7078Z" fill="#208A88"/>
<path d="M211.662 17.7078C210.784 17.7078 210.082 18.4104 210.082 19.2887C210.082 20.167 210.784 20.8697 211.662 20.8697C212.541 20.8697 213.243 20.167 213.243 19.2887C213.302 18.4104 212.541 17.7078 211.662 17.7078Z" fill="#208A88"/>
<path d="M220.504 17.7078C219.626 17.7078 218.923 18.4104 218.923 19.2887V32.8732C218.923 33.7515 219.626 34.4541 220.504 34.4541H228.643C229.521 34.4541 230.224 33.7515 230.224 32.8732C230.224 31.9949 229.521 31.2922 228.643 31.2922H222.085V27.6033H227.647C228.526 27.6033 229.228 26.9592 229.228 26.0809C229.228 25.2026 228.526 24.5585 227.647 24.5585H222.085V20.9282H223.783C224.661 20.9282 225.364 20.2256 225.364 19.3473C225.364 18.469 224.661 17.7663 223.783 17.7663L220.504 17.7078Z" fill="#208A88"/>
<path d="M228.584 17.7078C227.706 17.7078 227.003 18.4104 227.003 19.2887C227.003 20.167 227.706 20.8697 228.584 20.8697C229.463 20.8697 230.165 20.167 230.165 19.2887C230.165 18.4104 229.463 17.7078 228.584 17.7078Z" fill="#208A88"/>
<path d="M159.257 17.7077C159.198 17.7077 159.081 17.7077 159.023 17.7662C158.32 17.9419 157.852 18.586 157.852 19.2886V32.8731C157.852 33.7514 158.554 34.454 159.433 34.454C160.311 34.454 161.013 33.7514 161.013 32.8731V24.7341L165.464 33.5757C165.756 34.1027 166.283 34.3955 166.869 34.3955C167.454 34.3955 167.981 34.1027 168.274 33.5757L172.958 24.5585V28.0717C172.958 28.95 173.661 29.6526 174.539 29.6526C175.418 29.6526 176.12 28.95 176.12 28.0717V19.2301C176.12 18.5274 175.593 17.8833 174.949 17.7077C174.247 17.532 173.485 17.8248 173.193 18.4689L166.927 30.004L160.838 18.4689C160.486 18.0004 159.842 17.6491 159.257 17.7077Z" fill="#208A88"/>
<path d="M85.0692 17.2979C80.2092 17.2979 76.2861 21.221 76.2861 26.1395C76.2861 30.9994 80.2092 34.9225 85.0692 34.9225C89.9291 34.9225 93.9108 30.9994 93.9108 26.1395C93.8522 21.221 89.9291 17.2979 85.0692 17.2979ZM85.0692 31.7021C81.9658 31.7021 79.448 29.2428 79.448 26.0809C79.448 22.9776 81.9658 20.4598 85.0692 20.4598C88.1725 20.4598 90.6903 22.9776 90.6903 26.0809C90.6903 29.2428 88.1725 31.7021 85.0692 31.7021Z" fill="#208A88"/>
<path d="M248.141 23.0362C248.141 19.7571 245.916 17.7078 242.52 17.7078H237.367C236.489 17.7078 235.786 18.4104 235.786 19.2887V32.8732C235.786 33.7515 236.489 34.4541 237.367 34.4541C238.245 34.4541 238.948 33.7515 238.948 32.8732V28.5402H242.403L243.105 29.7113C243.574 30.4725 244.569 30.6481 245.272 30.1797C246.736 29.2428 245.565 27.7204 245.565 27.7204C247.263 26.7836 248.141 25.0855 248.141 23.0362ZM242.461 25.8467H238.948V20.8111H242.461C244.101 20.8111 244.921 21.8065 244.921 23.2704C244.979 24.5585 244.335 25.8467 242.461 25.8467Z" fill="#208A88"/>
<path d="M130.858 27.6033L126.584 18.586C126.291 18.059 125.764 17.6492 125.12 17.6492C124.476 17.6492 123.949 18.0005 123.656 18.586L117.215 32.1705C116.864 32.9902 117.215 33.9271 117.977 34.2784C118.738 34.6297 119.675 34.2784 120.084 33.5172L121.607 30.3553H129.629C130.156 30.3553 130.683 30.0626 130.917 29.6527C131.561 28.8915 131.093 28.1888 130.858 27.6033ZM122.954 27.6618L125.179 22.9776L127.404 27.6618H122.954Z" fill="#208A88"/>
<path d="M195.15 27.6033L190.876 18.586C190.642 18.059 190.056 17.6492 189.412 17.6492C188.768 17.6492 188.241 18.0005 187.948 18.586L181.507 32.1705C181.156 32.9902 181.507 33.9271 182.269 34.2784C183.088 34.6297 183.967 34.2784 184.376 33.5172L185.899 30.3553H193.921C194.448 30.3553 194.975 30.0626 195.267 29.6527C195.853 28.8915 195.385 28.1888 195.15 27.6033ZM187.246 27.6618L189.471 22.9776L191.696 27.6618H187.246Z" fill="#208A88"/>
<path d="M60.7694 29.5355C59.8911 29.5355 59.1885 30.2382 59.1885 31.1165C59.1885 31.9948 59.8911 32.6974 60.7694 32.6974C61.6477 32.6974 62.3504 31.9948 62.3504 31.1165C62.3504 30.1796 61.6477 29.5355 60.7694 29.5355Z" fill="#208A88"/>
<path d="M254.992 29.5355C254.114 29.5355 253.411 30.2382 253.411 31.1165C253.411 31.9948 254.114 32.6974 254.992 32.6974C255.87 32.6974 256.573 31.9948 256.573 31.1165C256.573 30.1796 255.87 29.5355 254.992 29.5355Z" fill="#208A88"/>
<path d="M247.087 31.2336C246.209 31.2336 245.506 31.9363 245.506 32.8146C245.506 33.6929 246.209 34.3955 247.087 34.3955C247.966 34.3955 248.668 33.6929 248.668 32.8146C248.668 31.9948 247.966 31.2336 247.087 31.2336Z" fill="#208A88"/>
<path d="M131.62 31.2922C130.741 31.2922 130.039 31.9949 130.039 32.8732C130.039 33.7515 130.741 34.4541 131.62 34.4541C132.498 34.4541 133.2 33.7515 133.2 32.8732C133.2 31.9949 132.498 31.2922 131.62 31.2922Z" fill="#208A88"/>
<path d="M144.267 31.2922C143.389 31.2922 142.686 31.9949 142.686 32.8732C142.686 33.7515 143.389 34.4541 144.267 34.4541C145.145 34.4541 145.848 33.7515 145.848 32.8732C145.848 31.9949 145.145 31.2922 144.267 31.2922Z" fill="#208A88"/>
<path d="M174.422 31.2922C173.544 31.2922 172.841 31.9949 172.841 32.8732C172.841 33.7515 173.544 34.4541 174.422 34.4541C175.301 34.4541 176.003 33.7515 176.003 32.8732C176.062 31.9949 175.359 31.2922 174.422 31.2922Z" fill="#208A88"/>
<path d="M195.912 31.2922C195.033 31.2922 194.331 31.9949 194.331 32.8732C194.331 33.7515 195.033 34.4541 195.912 34.4541C196.79 34.4541 197.492 33.7515 197.492 32.8732C197.492 31.9949 196.79 31.2922 195.912 31.2922Z" fill="#208A88"/>
<path d="M92.3886 33.4586C91.5103 33.4586 90.8076 34.1613 90.8076 35.0396C90.8076 35.9179 91.5103 36.6205 92.3886 36.6205C93.2669 36.6205 93.9695 35.9179 93.9695 35.0396C93.9695 34.1613 93.2669 33.4586 92.3886 33.4586Z" fill="#208A88"/>
</mask>
<g mask="url(#mask0_2_1471)">
<rect x="58.9243" y="17.1582" width="207.28" height="19.9083" fill="white"/>
</g>
</g>
<defs>
<filter id="filter0_d_2_1471" x="0.203013" y="0.203135" width="50.239" height="50.2391" filterUnits="userSpaceOnUse" color-interpolation-filters="sRGB">
<feFlood flood-opacity="0" result="BackgroundImageFix"/>
<feColorMatrix in="SourceAlpha" type="matrix" values="0 0 0 0 0 0 0 0 0 0 0 0 0 0 0 0 0 0 127 0" result="hardAlpha"/>
<feOffset/>
<feGaussianBlur stdDeviation="2.41534"/>
<feComposite in2="hardAlpha" operator="out"/>
<feColorMatrix type="matrix" values="0 0 0 0 0.0196078 0 0 0 0 0.858824 0 0 0 0 0.94902 0 0 0 0.6 0"/>
<feBlend mode="normal" in2="BackgroundImageFix" result="effect1_dropShadow_2_1471"/>
<feBlend mode="normal" in="SourceGraphic" in2="effect1_dropShadow_2_1471" result="shape"/>
</filter>
<filter id="filter1_d_2_1471" x="12.6422" y="9.86432" width="25.3597" height="30.9164" filterUnits="userSpaceOnUse" color-interpolation-filters="sRGB">
<feFlood flood-opacity="0" result="BackgroundImageFix"/>
<feColorMatrix in="SourceAlpha" type="matrix" values="0 0 0 0 0 0 0 0 0 0 0 0 0 0 0 0 0 0 127 0" result="hardAlpha"/>
<feOffset/>
<feGaussianBlur stdDeviation="2.89841"/>
<feColorMatrix type="matrix" values="0 0 0 0 1 0 0 0 0 1 0 0 0 0 1 0 0 0 0.6 0"/>
<feBlend mode="hard-light" in2="BackgroundImageFix" result="effect1_dropShadow_2_1471"/>
<feBlend mode="normal" in="SourceGraphic" in2="effect1_dropShadow_2_1471" result="shape"/>
</filter>
<linearGradient id="paint0_linear_2_1471" x1="42.3858" y1="8.73244" x2="9.69257" y2="42.6254" gradientUnits="userSpaceOnUse">
<stop stop-color="#05DBF2"/>
<stop offset="1" stop-color="#5AE2D1"/>
</linearGradient>
</defs>
</svg>
