<svg width="21" height="21" viewBox="0 0 21 21" fill="none" xmlns="http://www.w3.org/2000/svg">
<path d="M19.7984 7.54514L13.7353 6.66397L11.025 1.16925C10.9509 1.0188 10.8291 0.897018 10.6787 0.822991C10.3014 0.636729 9.84291 0.791947 9.65425 1.16925L6.94391 6.66397L0.880841 7.54514C0.713683 7.56901 0.560852 7.64782 0.443841 7.76722C0.302382 7.91261 0.224431 8.10822 0.227118 8.31106C0.229805 8.5139 0.312909 8.70737 0.458169 8.84897L4.84488 13.1258L3.8085 19.165C3.78419 19.3055 3.79974 19.45 3.85337 19.5821C3.907 19.7142 3.99658 19.8286 4.11193 19.9124C4.22729 19.9962 4.36381 20.046 4.50602 20.0561C4.64823 20.0662 4.79044 20.0363 4.91652 19.9698L10.3396 17.1185L15.7627 19.9698C15.9107 20.0486 16.0827 20.0748 16.2475 20.0462C16.663 19.9745 16.9424 19.5805 16.8707 19.165L15.8343 13.1258L20.221 8.84897C20.3404 8.73196 20.4192 8.57913 20.4431 8.41197C20.5076 7.99407 20.2163 7.60722 19.7984 7.54514Z" fill="#B9B9B9"/>
</svg>
