<svg width="25" height="23" viewBox="0 0 25 23" fill="none" xmlns="http://www.w3.org/2000/svg">
<path d="M23.4313 7.96936L16.3578 6.94134L13.1957 0.530825C13.1093 0.355309 12.9672 0.213224 12.7917 0.126859C12.3515 -0.0904462 11.8166 0.0906418 11.5965 0.530825L8.43447 6.94134L1.3609 7.96936C1.16588 7.99722 0.987579 8.08916 0.851067 8.22845C0.686031 8.39808 0.595089 8.62629 0.598223 8.86294C0.601357 9.09958 0.698312 9.3253 0.867783 9.4905L5.98561 14.4802L4.7765 21.5259C4.74814 21.6898 4.76628 21.8583 4.82885 22.0125C4.89142 22.1666 4.99592 22.3001 5.13051 22.3978C5.26509 22.4956 5.42437 22.5536 5.59028 22.5655C5.75619 22.5773 5.9221 22.5424 6.06919 22.4648L12.3961 19.1383L18.7231 22.4648C18.8958 22.5567 19.0964 22.5873 19.2886 22.5539C19.7734 22.4703 20.0993 22.0106 20.0158 21.5259L18.8066 14.4802L23.9245 9.4905C24.0638 9.35399 24.1557 9.17568 24.1836 8.98067C24.2588 8.49312 23.9189 8.0418 23.4313 7.96936Z" fill="#EEBA00"/>
</svg>
